<svg clip-rule="evenodd" fill-rule="evenodd" stroke-linejoin="round" stroke-miterlimit="2" viewBox="0 0 834 841" xmlns="http://www.w3.org/2000/svg"><path d="m249.593 536.138c-64.008-94.304-39.446-222.641 54.858-286.645 94.3-64.005 222.638-39.446 286.642 54.858 64.008 94.304 39.45 222.642-54.858 286.646-94.3 64.004-222.638 39.446-286.642-54.859m524.267-60.491c5.65-36 5.896-72.884.371-109.325l59.745-20.688c-8.287-46.112-24.458-91.416-48.858-133.983l-60.137 20.817c-2.742-4.442-5.534-8.863-8.496-13.225-17.063-25.142-36.779-47.396-58.496-66.705l32.217-54.516c-36.692-30.754-77.871-54.546-121.58-70.988l-32.216 54.642c-31.975-10.933-65.371-17.321-99.125-18.946l-9.763-62.662c-46.75-.838-93.858 6.108-139.358 21.204l9.204 62.816c-26.967 9.888-53.183 23.15-78.025 40.013-4.483 3.046-8.837 6.208-13.142 9.412l-48.183-41.537c-38.358 30.592-70.071 66.758-94.762 106.579l47.887 41.288c-18.4 31.591-31.675 65.67-39.692 100.92l-63.695-.645c-9.088 46.8-10.271 95.125-3.117 142.808l63.45.65c6.354 35.462 18.137 70.379 35.65 103.517l-48.879 40.508c5.516 9.7 11.329 19.3 17.704 28.692 20.846 30.712 45.075 57.75 71.8 81.041l48.846-40.479c28.029 23.038 59.041 41.388 91.887 54.754l-11.916 62.259c44.037 16.42 90.554 25.383 137.533 26.5l11.908-62.205c35.513-.195 71.179-5.72 105.804-16.704l31.134 55.434c33.504-11.784 66.062-27.984 96.833-48.871 9.371-6.359 18.3-13.117 26.992-20.079l-30.471-55.688c28.329-24.162 52.046-52.037 70.987-82.408l59.205 22.829c24.4-41.733 41.275-87.163 50.179-134.113z" fill="#f26821" fill-rule="nonzero"/></svg>